<svg width="24" height="25" viewBox="0 0 24 25" fill="none" xmlns="http://www.w3.org/2000/svg">
<path fill-rule="evenodd" clip-rule="evenodd" d="M17.2038 11.2959L18.9998 9.49994C19.545 8.95469 19.8176 8.68207 19.9634 8.38797C20.2407 7.82842 20.2407 7.17146 19.9634 6.61191C19.8176 6.31782 19.545 6.04519 18.9998 5.49994C18.4545 4.95469 18.1819 4.68207 17.8878 4.53633C17.3282 4.25905 16.6713 4.25905 16.1117 4.53633C15.8176 4.68207 15.545 4.95469 14.9998 5.49994L13.1811 7.3186C14.145 8.9692 15.5311 10.3448 17.2038 11.2959ZM11.7267 8.77305L4.85615 15.6436C4.43109 16.0686 4.21856 16.2812 4.07883 16.5422C3.93909 16.8033 3.88015 17.0981 3.76226 17.6875L3.14686 20.7645C3.08034 21.0971 3.04708 21.2634 3.14168 21.358C3.23629 21.4526 3.4026 21.4194 3.73521 21.3529L6.81219 20.7375C7.40164 20.6196 7.69637 20.5606 7.95746 20.4209C8.21856 20.2812 8.43109 20.0686 8.85615 19.6436L15.7456 12.7542C14.1239 11.7385 12.7522 10.3762 11.7267 8.77305Z" fill="#007FFA"/>
</svg>
