<svg width="90" height="90" viewBox="0 0 90 90" fill="none" xmlns="http://www.w3.org/2000/svg">
<path d="M40.7714 89.9114C40.7432 89.8659 40.2141 89.8169 39.5956 89.8024C38.977 89.7876 37.882 89.6775 37.1623 89.5577C30.8553 88.5067 24.4806 86.2195 20.2334 83.4834C19.4486 82.9778 19.2692 82.7825 19.3982 82.574C19.492 82.4223 19.8039 82.4993 21.6215 83.1233C22.4912 83.4218 23.8408 83.8043 24.6206 83.9733C25.9397 84.259 26.2089 84.2803 28.4921 84.2806C31.9177 84.2806 33.091 84.0866 36.8226 82.9035C43.9302 80.6499 45.7085 80.64 52.7689 82.8137C56.824 84.0622 58.419 84.3381 61.5757 84.3371C63.8725 84.3365 66.0311 83.9318 68.6258 83.0148C69.3155 82.7712 70.0091 82.5475 70.1668 82.518C70.4753 82.4602 70.6252 82.5905 70.5314 82.8348C70.3881 83.208 66.7618 85.2327 64.5361 86.1822C60.1956 88.0337 53.4645 89.7483 50.3576 89.7938C49.7269 89.803 49.1833 89.855 49.1497 89.9095C49.0755 90.0289 40.8451 90.0308 40.7714 89.9114ZM24.5114 81.11C18.8609 80.2759 13.9621 77.7202 9.78555 73.4275C7.51048 71.0891 5.83 68.6654 4.13566 65.2782C1.91872 60.8467 0.339114 55.1309 0.0683217 50.5591C-0.02416 48.999 -0.0221969 40.3281 0.07083 38.8456C0.260483 35.8243 1.36503 31.3883 2.88487 27.5432C3.468 26.0677 5.01445 22.8515 5.75464 21.5749C5.98039 21.1853 6.22162 20.7685 6.29077 20.6487C7.78127 18.0602 10.645 14.4307 13.1752 11.9231C15.4686 9.65023 17.6661 7.87489 20.3125 6.15719C21.1223 5.63166 21.9075 5.11801 22.0575 5.01569C22.6118 4.63759 25.9692 2.93776 27.1961 2.41397C29.9154 1.25297 21.1316 27.5759 22.0575 27.5432C22.36 27.5324 34.5242 0.14187 34.5554 0.0915292C34.5865 0.0411882 34.8686 0 35.1821 0C35.6645 0 35.7547 0.0319263 35.768 0.207357C35.7806 0.376686 35.6093 0.468652 34.8368 0.707499C31.6021 1.70746 27.8881 3.47539 24.3064 5.72058C21.6154 7.40733 18.4608 10.0457 15.8521 12.7913C9.16926 19.8256 5.28056 28.2855 4.09727 38.3658C3.86661 40.3309 3.83619 45.5463 4.04482 47.399C5.32451 58.7708 10.2412 67.7842 17.5317 72.1234C20.2532 73.7434 23.2427 74.6001 26.5835 74.7178C29.2911 74.813 31.0226 74.4576 35.92 72.8018C40.5251 71.2448 41.7721 70.9157 43.7891 70.7247C45.1355 70.5973 46.7291 70.7128 48.2913 71.0509C49.2222 71.2525 53.1008 72.4617 55.2113 73.2086C58.4587 74.3578 60.8651 74.8047 63.3362 74.7178C67.3853 74.5753 70.929 73.3427 74.1508 70.956C80.4689 66.2756 84.735 57.7012 85.8716 47.3993C86.0566 45.722 86.0583 40.6267 85.8742 38.9002C85.0627 31.2833 82.8154 24.823 78.9192 18.9055C75.0954 13.0979 69.6767 7.99061 63.6633 4.52612C61.1999 3.10698 71.0177 28.2836 68.6258 27.5432C67.869 27.309 54.1207 0.368078 54.1207 0.205287C54.1207 0.0321442 54.2047 0.000217927 54.6594 0.000217927C54.9559 0.000217927 55.2233 0.0407523 55.254 0.0903306C55.2846 0.1398 55.5883 0.191667 55.9289 0.205396C57.4568 0.267178 62.3276 2.07793 65.6445 3.81731C76.2439 9.37565 83.9914 18.4572 87.8973 29.9023C88.9145 32.8831 89.7535 36.7284 89.7893 38.5732C89.8004 39.1446 89.8644 39.6787 89.9324 39.7654C90.0287 39.8883 90.0234 39.9034 89.9083 39.8341C89.7888 39.7623 89.7845 39.7894 89.885 39.977C90.0364 40.2596 89.9783 48.2649 89.8054 50.9404C89.676 52.9472 89.3243 54.9525 88.6399 57.5871C86.351 66.3996 81.606 73.4188 75.1689 77.5149C72.8758 78.9742 69.5007 80.3393 66.8715 80.8714C65.7713 81.094 65.3149 81.1234 62.9543 81.1234C59.3943 81.1234 57.667 80.8297 52.8119 79.3989C47.7079 77.8948 47.0425 77.7555 44.9597 77.7555C42.8767 77.7555 42.2095 77.8952 37.1075 79.399C32.4245 80.7794 30.7857 81.07 27.4012 81.1203C25.9918 81.1411 24.6911 81.1367 24.5114 81.11Z" fill="#007FFA"/>
<path d="M37.3814 60L26.1484 33.1723C25.351 31.3255 24.5536 30.0457 23.7562 29.3328C22.9588 28.62 22.0401 28.1988 21 28.0692V27.0972C21.1387 27.0972 21.4854 27.081 22.0401 27.0486C22.5601 27.0162 22.9415 27 23.1842 27C24.3976 27 25.6457 27.1296 26.9285 27.3888C28.2113 27.6156 29.4247 28.1664 30.5688 29.0412C31.7129 29.9161 32.6836 31.2931 33.481 33.1723L40.5016 49.9396L45.182 37.4978L43.3619 33.1723C42.5645 31.3255 41.6977 30.0457 40.7616 29.3328C39.8602 28.62 38.8895 28.1988 37.8494 28.0692V27.0972C37.9881 27.0972 38.3001 27.081 38.7855 27.0486C39.2709 27.0162 39.6349 27 39.8776 27C41.091 27 42.3391 27.1296 43.6219 27.3888C44.9047 27.648 46.1181 28.215 47.2622 29.0898C48.4063 29.9323 49.377 31.2931 50.1744 33.1723L57.611 50.863L66.5038 27.486H69L56.675 60H54.5948L46.5861 40.9485L39.4615 60H37.3814Z" fill="#007FFA"/>
</svg>
